<svg width="1220" height="1346" viewBox="0 0 1220 1346" fill="none" xmlns="http://www.w3.org/2000/svg">
<path opacity="0.4" d="M653.066 1270.35C575.393 1270.35 497.734 1253.28 438.604 1219.14C381.088 1185.93 349.411 1141.71 349.411 1094.62C349.411 1047.52 381.088 1003.3 438.6 970.098C556.855 901.833 749.263 901.833 867.509 970.103C925.025 1003.31 956.702 1047.53 956.702 1094.63C956.702 1141.72 925.025 1185.94 867.514 1219.15C808.397 1253.28 730.725 1270.35 653.066 1270.35ZM653.047 921.339C575.832 921.339 498.621 938.304 439.839 972.242C383.123 1004.99 351.884 1048.45 351.884 1094.62C351.889 1140.8 383.123 1184.26 439.843 1217.01C557.408 1284.88 748.705 1284.89 866.27 1217.01C922.986 1184.27 954.224 1140.8 954.224 1094.64C954.224 1048.46 922.986 1005 866.265 972.256C807.488 938.309 730.268 921.339 653.047 921.339Z" fill="#FFB703"/>
<path opacity="0.2" d="M653.066 1317.41C554.505 1317.41 455.972 1295.76 380.937 1252.43C308.015 1210.34 267.857 1154.29 267.853 1094.62C267.853 1034.94 308.01 978.903 380.928 936.805C530.975 850.181 775.125 850.176 925.18 936.809C998.103 978.907 1038.27 1034.96 1038.27 1094.63C1038.27 1154.3 998.108 1210.34 925.19 1252.44C850.173 1295.75 751.608 1317.41 653.066 1317.41ZM653.047 874.272C554.944 874.272 456.85 895.831 382.167 938.944C310.044 980.581 270.326 1035.87 270.326 1094.62C270.326 1153.37 310.049 1208.65 382.176 1250.29C531.546 1336.53 774.585 1336.53 923.946 1250.3C996.069 1208.66 1035.79 1153.38 1035.79 1094.63C1035.79 1035.88 996.069 980.59 923.937 938.949C849.254 895.835 751.146 874.272 653.047 874.272Z" fill="#FFB703"/>
<path d="M653.066 1233.27C591.846 1233.28 530.646 1219.82 484.037 1192.91C438.654 1166.72 413.661 1131.8 413.661 1094.62C413.661 1057.43 438.65 1022.52 484.028 996.329C577.231 942.519 728.873 942.528 822.071 996.329C867.454 1022.53 892.443 1057.44 892.443 1094.62C892.443 1131.81 867.454 1166.72 822.076 1192.92C775.49 1219.82 714.271 1233.27 653.066 1233.27ZM653.047 958.414C592.285 958.414 531.523 971.767 485.272 998.473C440.689 1024.21 416.139 1058.36 416.139 1094.62C416.139 1130.88 440.693 1165.03 485.281 1190.77C577.793 1244.18 728.329 1244.19 820.841 1190.77C865.424 1165.03 889.974 1130.88 889.974 1094.62C889.974 1058.36 865.42 1024.21 820.832 998.473C774.576 971.767 713.809 958.414 653.047 958.414Z" fill="#FFB703"/>
<path d="M919.926 760.492L918.687 762.638L926.606 767.208L927.845 765.063L919.926 760.492Z" fill="#FFB703"/>
<path d="M904.247 754.373L889.782 746.021L891.021 743.872L905.486 752.224L904.247 754.373ZM875.317 737.673L860.852 729.321L862.096 727.173L876.561 735.525L875.317 737.673ZM846.383 720.969L831.914 712.617L833.157 710.469L847.627 718.821L846.383 720.969ZM817.449 704.265L802.984 695.913L804.228 693.765L818.692 702.117L817.449 704.265ZM788.519 687.566L774.055 679.214L775.294 677.065L789.758 685.417L788.519 687.566Z" fill="#FFB703"/>
<path d="M752.803 664.199L751.564 666.344L759.477 670.914L760.716 668.769L752.803 664.199Z" fill="#FFB703"/>
<g opacity="0.3">
<path d="M1219.6 988.695V956.681L1210.75 951.758C1208.24 966.866 1190.46 976.823 1175.59 978.889L1074.35 1038.09L1030.16 1054.05L889.119 981.266L892.379 979.383C880.324 973.751 873.832 960.873 867.313 949.125L857.817 954.789L852.176 956.375V989.207C852.176 995.479 856.313 1001.75 864.583 1006.53L1005.88 1088.11C1022.43 1097.65 1049.35 1097.65 1065.89 1088.11L1207.19 1006.53C1215.33 1001.83 1219.46 995.689 1219.6 989.518C1219.6 989.243 1219.59 988.969 1219.58 988.69L1219.6 988.695Z" fill="url(#paint0_linear_14_725)"/>
<path opacity="0.3" d="M1175.59 978.889L1074.34 1038.09L1035.88 1051.98V1095.27C1046.75 1095.27 1057.62 1092.88 1065.89 1088.11L1207.19 1006.53C1215.33 1001.83 1219.46 995.689 1219.6 989.518C1219.6 989.243 1219.59 988.969 1219.58 988.69L1219.6 988.699V956.686L1211.5 952.187H1210.66C1207.9 967.049 1190.32 976.841 1175.59 978.889Z" fill="#023047"/>
<path d="M1005.88 1055.58L864.583 974.002C848.038 964.453 848.038 948.91 864.583 939.36L1005.88 857.787C1022.43 848.238 1049.35 848.238 1065.89 857.787L1207.2 939.365C1223.74 948.914 1223.74 964.457 1207.2 974.007L1065.9 1055.58C1049.35 1065.13 1022.43 1065.13 1005.88 1055.58Z" fill="url(#paint1_linear_14_725)"/>
<g opacity="0.3">
<path d="M1005.88 1055.58L864.583 974.002C848.038 964.453 848.038 948.91 864.583 939.36L1005.88 857.787C1022.43 848.238 1049.35 848.238 1065.89 857.787L1207.2 939.365C1223.74 948.914 1223.74 964.457 1207.2 974.007L1065.9 1055.58C1049.35 1065.13 1022.43 1065.13 1005.88 1055.58Z" fill="#023047"/>
</g>
</g>
<path d="M1035.89 952.475C1026.25 952.475 1016.6 950.354 1009.26 946.112L867.952 864.53C860.619 860.293 856.578 854.578 856.578 848.439C856.578 842.299 860.619 836.585 867.952 832.347L1009.25 750.775C1023.94 742.299 1047.83 742.299 1062.52 750.775L1203.82 832.352C1211.16 836.59 1215.19 842.304 1215.19 848.443C1215.19 854.583 1211.15 860.297 1203.82 864.535L1062.52 946.112C1055.18 950.354 1045.53 952.475 1035.89 952.475ZM1035.88 746.862C1026.69 746.862 1017.49 748.882 1010.49 752.923L869.191 834.496C862.649 838.272 859.051 843.223 859.051 848.443C859.051 853.664 862.649 858.615 869.191 862.391L1010.5 943.973C1024.49 952.055 1047.28 952.055 1061.28 943.973L1202.58 862.395C1209.12 858.619 1212.72 853.669 1212.72 848.448C1212.72 843.227 1209.12 838.277 1202.58 834.501L1061.27 752.923C1054.28 748.882 1045.08 746.862 1035.88 746.862Z" fill="#FFB703"/>
<path opacity="0.4" d="M1219.6 817.138V768.754L1210.74 763.831C1208.24 778.939 1190.46 788.896 1175.59 790.962L1074.34 850.167L1030.16 866.121L889.119 793.339L892.379 791.456C880.323 785.824 873.831 772.946 867.312 761.193L857.817 766.857L852.175 768.443V817.646C852.175 823.918 856.313 830.19 864.583 834.967L1005.88 916.544C1022.43 926.094 1049.35 926.094 1065.89 916.544L1207.19 834.971C1215.33 830.272 1219.46 824.123 1219.6 817.957C1219.6 817.682 1219.59 817.408 1219.58 817.129L1219.6 817.138Z" fill="#FFB703"/>
<path d="M1219.6 774.13V742.117L1210.74 737.193C1208.24 752.302 1190.46 762.258 1175.59 764.325L1074.34 823.529L1030.16 839.483L889.119 766.702L892.379 764.818C880.323 759.186 873.831 746.309 867.312 734.555L857.817 740.219L852.175 741.806V774.638C852.175 780.91 856.313 787.182 864.583 791.959L1005.88 873.536C1022.43 883.086 1049.35 883.086 1065.89 873.536L1207.19 791.963C1215.33 787.264 1219.46 781.12 1219.6 774.949C1219.6 774.674 1219.59 774.4 1219.58 774.121L1219.6 774.13Z" fill="url(#paint2_linear_14_725)"/>
<path opacity="0.3" d="M1175.59 764.325L1074.34 823.529L1035.88 837.417V880.704C1046.75 880.704 1057.62 878.318 1065.89 873.541L1207.19 791.968C1215.33 787.269 1219.46 781.125 1219.6 774.953C1219.6 774.679 1219.59 774.405 1219.58 774.126L1219.6 774.135V742.121L1211.5 737.618H1210.66C1207.9 752.485 1190.32 762.277 1175.59 764.325Z" fill="#023047"/>
<path d="M1005.88 841.015L864.583 759.438C848.038 749.888 848.038 734.345 864.583 724.791L1005.88 643.218C1022.43 633.669 1049.35 633.669 1065.89 643.218L1207.19 724.795C1223.74 734.345 1223.74 749.888 1207.19 759.438L1065.89 841.01C1049.35 850.565 1022.43 850.565 1005.88 841.015Z" fill="url(#paint3_linear_14_725)"/>
<path d="M1207.19 759.438L1065.89 841.01C1049.35 850.56 1022.43 850.56 1005.88 841.01L864.583 759.433C857.186 755.163 853.108 749.696 852.322 744.105C851.352 751.026 855.43 758.14 864.583 763.424L1005.88 845.001C1022.43 854.551 1049.35 854.551 1065.89 845.001L1207.19 763.429C1216.34 758.144 1220.42 751.031 1219.45 744.114C1218.66 749.705 1214.59 755.173 1207.19 759.438Z" fill="white"/>
<path d="M385.262 770.519L384.023 768.375L558.976 667.369L560.219 669.509L385.262 770.519Z" fill="#FFB703"/>
<g opacity="0.3">
<path d="M458.189 988.695V956.681L449.334 951.758C446.833 966.866 429.05 976.823 414.183 978.889L312.934 1038.09L268.749 1054.05L127.708 981.266L130.968 979.383C118.912 973.751 112.421 960.873 105.901 949.125L96.406 954.789L90.7646 956.375V989.207C90.7646 995.479 94.902 1001.75 103.172 1006.53L244.473 1088.11C261.018 1097.65 287.936 1097.65 304.481 1088.11L445.782 1006.53C453.919 1001.83 458.052 995.689 458.185 989.518C458.189 989.243 458.18 988.969 458.167 988.69L458.189 988.695Z" fill="url(#paint4_linear_14_725)"/>
<path opacity="0.3" d="M414.182 978.889L312.934 1038.09L274.472 1051.98V1095.27C285.339 1095.27 296.206 1092.88 304.481 1088.11L445.782 1006.53C453.919 1001.83 458.052 995.689 458.185 989.518C458.189 989.243 458.18 988.969 458.166 988.69L458.185 988.699V956.686L450.093 952.187H449.247C446.49 967.049 428.908 976.841 414.182 978.889Z" fill="#023047"/>
<path d="M244.473 1055.58L103.172 974.002C86.627 964.453 86.627 948.91 103.172 939.36L244.473 857.787C261.018 848.238 287.936 848.238 304.481 857.787L445.786 939.365C462.331 948.914 462.331 964.457 445.786 974.007L304.485 1055.58C287.936 1065.13 261.018 1065.13 244.473 1055.58Z" fill="url(#paint5_linear_14_725)"/>
<g opacity="0.3">
<path d="M244.473 1055.58L103.172 974.002C86.627 964.453 86.627 948.91 103.172 939.36L244.473 857.787C261.018 848.238 287.936 848.238 304.481 857.787L445.786 939.365C462.331 948.914 462.331 964.457 445.786 974.007L304.485 1055.58C287.936 1065.13 261.018 1065.13 244.473 1055.58Z" fill="#023047"/>
</g>
</g>
<path d="M274.477 952.475C264.835 952.475 255.184 950.354 247.842 946.112L106.541 864.53C99.2035 860.293 95.1621 854.578 95.1621 848.439C95.1621 842.299 99.2035 836.585 106.541 832.347L247.838 750.775C262.526 742.299 286.418 742.299 301.107 750.775L442.408 832.352C449.741 836.59 453.782 842.304 453.782 848.443C453.782 854.583 449.741 860.297 442.408 864.535L301.111 946.112C293.765 950.354 284.118 952.475 274.477 952.475ZM249.081 943.973C263.084 952.055 285.869 952.055 299.868 943.973L441.164 862.395C447.706 858.619 451.304 853.669 451.304 848.448C451.304 843.227 447.706 838.277 441.164 834.501L299.863 752.923C285.86 744.841 263.075 744.841 249.077 752.923L107.775 834.496C101.238 838.272 97.6355 843.223 97.6355 848.443C97.6355 853.664 101.238 858.615 107.775 862.391L249.081 943.973Z" fill="#FFB703"/>
<path opacity="0.4" d="M458.189 817.138V768.754L449.334 763.831C446.833 778.939 429.05 788.896 414.183 790.962L312.934 850.167L268.749 866.121L127.708 793.339L130.968 791.456C118.912 785.824 112.421 772.946 105.901 761.193L96.406 766.857L90.7646 768.443V817.646C90.7646 823.918 94.902 830.19 103.172 834.967L244.473 916.544C261.018 926.094 287.936 926.094 304.481 916.544L445.782 834.971C453.919 830.272 458.052 824.123 458.185 817.957C458.189 817.682 458.18 817.408 458.167 817.129L458.189 817.138Z" fill="#FFB703"/>
<path d="M458.189 774.13V742.117L449.334 737.193C446.833 752.302 429.05 762.258 414.183 764.325L312.934 823.529L268.749 839.483L127.708 766.702L130.968 764.818C118.912 759.186 112.421 746.309 105.901 734.555L96.406 740.219L90.7646 741.806V774.638C90.7646 780.91 94.902 787.182 103.172 791.959L244.473 873.536C261.018 883.086 287.936 883.086 304.481 873.536L445.782 791.963C453.919 787.264 458.052 781.12 458.185 774.949C458.189 774.674 458.18 774.4 458.167 774.121L458.189 774.13Z" fill="url(#paint6_linear_14_725)"/>
<path opacity="0.3" d="M414.182 764.325L312.934 823.529L274.472 837.417V880.704C285.339 880.704 296.206 878.318 304.481 873.541L445.782 791.968C453.919 787.269 458.052 781.125 458.185 774.953C458.189 774.679 458.18 774.405 458.166 774.126L458.185 774.135V742.121L450.093 737.618H449.247C446.49 752.485 428.908 762.277 414.182 764.325Z" fill="#023047"/>
<path d="M244.473 841.015L103.172 759.438C86.627 749.888 86.627 734.345 103.172 724.791L244.473 643.218C261.018 633.669 287.936 633.669 304.481 643.218L445.786 724.795C462.331 734.345 462.331 749.888 445.786 759.438L304.485 841.01C287.936 850.565 261.018 850.565 244.473 841.015Z" fill="url(#paint7_linear_14_725)"/>
<path d="M244.473 841.015L103.172 759.438C86.627 749.888 86.627 734.345 103.172 724.791L244.473 643.218C261.018 633.669 287.936 633.669 304.481 643.218L445.786 724.795C462.331 734.345 462.331 749.888 445.786 759.438L304.485 841.01C287.936 850.565 261.018 850.565 244.473 841.015Z" fill="#023047"/>
<g opacity="0.51">
<path d="M244.473 841.015L103.172 759.438C86.627 749.888 86.627 734.345 103.172 724.791L244.473 643.218C261.018 633.669 287.936 633.669 304.481 643.218L445.786 724.795C462.331 734.345 462.331 749.888 445.786 759.438L304.485 841.01C287.936 850.565 261.018 850.565 244.473 841.015Z" fill="#219EBC"/>
</g>
<path d="M445.782 759.438L304.481 841.01C287.936 850.56 261.018 850.56 244.473 841.01L103.172 759.433C95.7748 755.163 91.6969 749.696 90.9106 744.105C89.9414 751.026 94.0193 758.14 103.172 763.424L244.473 845.001C261.018 854.551 287.936 854.551 304.481 845.001L445.782 763.429C454.929 758.144 459.012 751.031 458.038 744.114C457.252 749.705 453.174 755.173 445.782 759.438Z" fill="white"/>
<path d="M768.153 1008.7L766.914 1006.56L774.832 1001.99L776.076 1004.13L768.153 1008.7Z" fill="#FFB703"/>
<path d="M790.54 995.781L789.297 993.636L803.762 985.285L805.005 987.429L790.54 995.781ZM819.47 979.081L818.231 976.937L832.696 968.585L833.935 970.729L819.47 979.081ZM848.404 962.373L847.165 960.228L861.63 951.881L862.873 954.025L848.404 962.373ZM877.333 945.673L876.094 943.529L890.559 935.177L891.798 937.321L877.333 945.673ZM906.263 928.974L905.024 926.83L919.489 918.478L920.732 920.622L906.263 928.974Z" fill="#FFB703"/>
<path d="M935.193 912.27L933.954 910.13L941.872 905.559L943.115 907.698L935.193 912.27Z" fill="#FFB703"/>
<g opacity="0.3">
<path d="M836.778 1239.13V1207.12L827.923 1202.19C825.422 1217.3 807.638 1227.26 792.771 1229.33L691.522 1288.53L647.337 1304.48L506.297 1231.71L509.556 1229.82C497.501 1224.19 491.009 1211.31 484.49 1199.56L474.995 1205.23L469.353 1206.81V1239.64C469.353 1245.92 473.49 1252.19 481.761 1256.96L623.066 1338.54C639.611 1348.09 666.529 1348.09 683.074 1338.54L824.375 1256.97C832.513 1252.27 836.645 1246.13 836.778 1239.95C836.782 1239.68 836.769 1239.41 836.76 1239.13L836.778 1239.13Z" fill="url(#paint8_linear_14_725)"/>
<path opacity="0.3" d="M792.776 1229.33L691.527 1288.53L653.065 1302.42V1345.71C663.932 1345.71 674.799 1343.32 683.074 1338.54L824.375 1256.97C832.513 1252.27 836.645 1246.13 836.778 1239.95C836.782 1239.68 836.769 1239.41 836.76 1239.13L836.778 1239.14V1207.12L828.686 1202.62H827.84C825.079 1217.49 807.501 1227.28 792.776 1229.33Z" fill="#023047"/>
<path d="M623.066 1306.02L481.761 1224.44C465.216 1214.88 465.216 1199.35 481.761 1189.79L623.057 1108.22C639.602 1098.67 666.52 1098.67 683.065 1108.22L824.37 1189.8C840.915 1199.35 840.915 1214.89 824.37 1224.44L683.069 1306.02C666.529 1315.57 639.611 1315.57 623.066 1306.02Z" fill="url(#paint9_linear_14_725)"/>
<g opacity="0.3">
<path d="M623.066 1306.02L481.761 1224.44C465.216 1214.88 465.216 1199.35 481.761 1189.79L623.057 1108.22C639.602 1098.67 666.52 1098.67 683.065 1108.22L824.37 1189.8C840.915 1199.35 840.915 1214.89 824.37 1224.44L683.069 1306.02C666.529 1315.57 639.611 1315.57 623.066 1306.02Z" fill="#023047"/>
</g>
</g>
<path d="M653.066 1187.34C643.424 1187.34 633.778 1185.22 626.436 1180.97L485.13 1099.4C477.797 1095.16 473.756 1089.44 473.756 1083.31C473.756 1077.17 477.797 1071.45 485.13 1067.21L626.431 985.637C641.12 977.157 665.012 977.157 679.696 985.637L820.997 1067.21C828.33 1071.45 832.371 1077.17 832.371 1083.31C832.371 1089.44 828.33 1095.16 821.001 1099.39L679.7 1180.97C672.358 1185.22 662.712 1187.34 653.066 1187.34ZM653.061 981.728C643.863 981.728 634.674 983.749 627.67 987.79L486.369 1069.37C479.827 1073.14 476.229 1078.09 476.229 1083.31C476.229 1088.53 479.827 1093.49 486.369 1097.26L627.675 1178.84C641.669 1186.92 664.463 1186.92 678.457 1178.84L819.758 1097.26C826.295 1093.49 829.898 1088.54 829.898 1083.32C829.898 1078.09 826.295 1073.14 819.753 1069.37L678.452 987.79C671.458 983.749 662.259 981.728 653.061 981.728Z" fill="#FFB703"/>
<path opacity="0.4" d="M836.782 1052V1003.62L827.927 998.693C825.426 1013.8 807.642 1023.76 792.775 1025.82L691.527 1085.03L647.342 1100.98L506.301 1028.2L509.561 1026.32C497.505 1020.69 491.013 1007.81 484.494 996.059L474.999 1001.72L469.357 1003.31V1052.51C469.357 1058.78 473.495 1065.06 481.765 1069.83L623.066 1151.41C639.611 1160.96 666.529 1160.96 683.074 1151.41L824.375 1069.83C832.512 1065.13 836.645 1058.99 836.778 1052.82C836.782 1052.54 836.773 1052.27 836.759 1051.99L836.782 1052Z" fill="#FFB703"/>
<path d="M836.782 1008.99V976.978L827.927 972.055C825.426 987.164 807.642 997.12 792.775 999.186L691.527 1058.39L647.342 1074.35L506.301 1001.56L509.561 999.68C497.505 994.048 491.013 981.17 484.494 969.417L474.999 975.081L469.357 976.668V1009.5C469.357 1015.77 473.495 1022.04 481.765 1026.82L623.066 1108.4C639.611 1117.95 666.529 1117.95 683.074 1108.4L824.375 1026.83C832.512 1022.13 836.645 1015.98 836.778 1009.81C836.782 1009.54 836.773 1009.26 836.759 1008.98L836.782 1008.99Z" fill="url(#paint10_linear_14_725)"/>
<path opacity="0.3" d="M792.776 999.191L691.527 1058.4L653.065 1072.28V1115.57C663.932 1115.57 674.799 1113.18 683.074 1108.41L824.375 1026.83C832.513 1022.13 836.645 1015.99 836.778 1009.82C836.782 1009.55 836.773 1009.27 836.76 1008.99L836.778 1009V976.987L828.686 972.485H827.84C825.079 987.351 807.501 997.138 792.776 999.191Z" fill="#023047"/>
<path d="M623.066 1075.88L481.765 994.304C465.22 984.754 465.22 969.211 481.765 959.657L623.062 878.085C639.607 868.535 666.525 868.535 683.069 878.085L824.375 959.662C840.92 969.212 840.92 984.754 824.375 994.304L683.074 1075.88C666.529 1085.43 639.611 1085.43 623.066 1075.88Z" fill="url(#paint11_linear_14_725)"/>
<path d="M653.065 1061.07C644.356 1061.07 635.643 1059.15 629.005 1055.32L518.608 991.584C511.961 987.744 508.299 982.56 508.294 976.983C508.294 971.401 511.961 966.217 518.608 962.377L629 898.647C642.263 890.99 663.85 890.981 677.122 898.647L787.513 962.382C794.165 966.217 797.827 971.406 797.827 976.983C797.832 982.565 794.165 987.749 787.518 991.589L677.126 1055.32C670.497 1059.15 661.784 1061.07 653.065 1061.07ZM630.248 1053.18C642.825 1060.44 663.306 1060.44 675.887 1053.18L786.284 989.449C792.136 986.071 795.358 981.641 795.358 976.983C795.358 972.325 792.131 967.904 786.279 964.521L675.887 900.786C663.301 893.527 642.825 893.532 630.248 900.786L519.856 964.517C514.004 967.895 510.781 972.325 510.781 976.983C510.781 981.637 514.004 986.062 519.856 989.44L630.248 1053.18Z" fill="#219EBC"/>
<path d="M824.37 994.304L683.069 1075.88C666.525 1085.43 639.607 1085.43 623.062 1075.88L481.761 994.3C474.364 990.03 470.286 984.562 469.499 978.972C468.53 985.893 472.608 993.006 481.761 998.29L623.062 1079.87C639.607 1089.42 666.525 1089.42 683.069 1079.87L824.37 998.29C833.518 993.01 837.601 985.893 836.627 978.976C835.845 984.572 831.767 990.034 824.37 994.304Z" fill="white"/>
<g opacity="0.3">
<path d="M836.778 745.262V713.248L827.923 708.325C825.422 723.433 807.638 733.39 792.771 735.456L691.522 794.661L647.337 810.615L506.297 737.833L509.556 735.95C497.501 730.318 491.009 717.44 484.49 705.691L474.995 711.355L469.353 712.942V745.774C469.353 752.046 473.49 758.318 481.761 763.095L623.062 844.672C639.607 854.222 666.525 854.222 683.069 844.672L824.37 763.099C832.508 758.4 836.641 752.256 836.773 746.085C836.778 745.81 836.769 745.536 836.755 745.257L836.778 745.262Z" fill="url(#paint12_linear_14_725)"/>
<path opacity="0.3" d="M792.776 735.456L691.527 794.661L653.065 808.549V851.835C663.932 851.835 674.799 849.449 683.074 844.672L824.375 763.099C832.513 758.4 836.645 752.256 836.778 746.085C836.782 745.81 836.773 745.536 836.76 745.257L836.778 745.266V713.253L828.686 708.754H827.84C825.079 723.616 807.501 733.403 792.776 735.456Z" fill="#023047"/>
<path d="M623.066 812.146L481.761 730.569C465.216 721.019 465.216 705.476 481.761 695.922L623.057 614.35C639.602 604.8 666.52 604.8 683.065 614.35L824.37 695.927C840.915 705.477 840.915 721.019 824.37 730.569L683.069 812.142C666.529 821.696 639.611 821.696 623.066 812.146Z" fill="url(#paint13_linear_14_725)"/>
<g opacity="0.3">
<path d="M623.066 812.146L481.761 730.569C465.216 721.019 465.216 705.476 481.761 695.922L623.057 614.35C639.602 604.8 666.52 604.8 683.065 614.35L824.37 695.927C840.915 705.477 840.915 721.019 824.37 730.569L683.069 812.142C666.529 821.696 639.611 821.696 623.066 812.146Z" fill="#023047"/>
</g>
</g>
<path d="M653.066 714.404C643.424 714.404 633.778 712.288 626.436 708.046L485.13 626.469C477.797 622.235 473.756 616.521 473.756 610.377C473.756 604.238 477.797 598.523 485.13 594.286L626.431 512.709C641.12 504.233 665.012 504.229 679.696 512.709L820.997 594.286C828.33 598.519 832.371 604.238 832.371 610.377C832.371 616.517 828.33 622.231 821.001 626.464L679.7 708.041C672.358 712.283 662.712 714.404 653.066 714.404ZM653.061 508.795C643.863 508.795 634.674 510.816 627.67 514.857L486.369 596.434C479.827 600.21 476.229 605.161 476.229 610.382C476.229 615.602 479.827 620.553 486.369 624.329L627.675 705.906C641.669 713.989 664.463 713.989 678.457 705.906L819.758 624.329C826.295 620.553 829.898 615.602 829.898 610.386C829.898 605.17 826.295 600.21 819.753 596.439L678.452 514.862C671.458 510.816 662.259 508.795 653.061 508.795Z" fill="#FFB703"/>
<path opacity="0.4" d="M836.783 579.067V530.683L827.928 525.76C825.427 540.869 807.643 550.825 792.776 552.891L691.527 612.096L647.342 628.05L506.302 555.269L509.561 553.385C497.506 547.758 491.014 534.875 484.495 523.127L474.999 528.791L469.358 530.377V579.579C469.358 585.851 473.495 592.123 481.765 596.901L623.067 678.478C639.611 688.027 666.529 688.027 683.074 678.478L824.375 596.905C832.513 592.206 836.646 586.062 836.778 579.89C836.783 579.616 836.774 579.342 836.76 579.063L836.783 579.067Z" fill="#FFB703"/>
<path d="M836.783 536.059V504.046L827.928 499.122C825.427 514.231 807.643 524.187 792.776 526.254L691.527 585.458L647.342 601.413L506.302 528.631L509.561 526.747C497.506 521.115 491.014 508.238 484.495 496.489L474.999 502.153L469.358 503.739V536.571C469.358 542.843 473.495 549.115 481.765 553.893L623.067 635.47C639.611 645.019 666.529 645.019 683.074 635.47L824.375 553.897C832.513 549.198 836.646 543.054 836.778 536.882C836.783 536.608 836.774 536.329 836.76 536.055L836.783 536.059Z" fill="url(#paint14_linear_14_725)"/>
<path opacity="0.3" d="M792.776 526.254L691.527 585.458L653.065 599.346V642.633C663.932 642.633 674.799 640.247 683.074 635.47L824.375 553.897C832.513 549.198 836.645 543.054 836.778 536.882C836.782 536.608 836.773 536.329 836.76 536.055L836.778 536.064V504.05L828.686 499.552H827.84C825.079 514.414 807.501 524.206 792.776 526.254Z" fill="#023047"/>
<path d="M509.556 526.752L643.456 449.449C648.754 446.391 657.372 446.391 662.67 449.449L794.234 525.403L792.775 526.258C807.643 524.187 825.426 514.235 827.927 499.127L680.276 417.01L637.316 405.659L602.334 426.217L484.49 496.498C491.009 508.242 497.501 521.12 509.556 526.752Z" fill="url(#paint15_linear_14_725)"/>
<path opacity="0.3" d="M653.065 409.815L637.316 405.65L602.334 426.208L484.49 496.489C491.009 508.238 497.501 521.12 509.556 526.747L643.456 449.445C646.107 447.913 649.586 447.15 653.065 447.15V409.815Z" fill="#023047"/>
<path d="M623.066 602.944L481.765 521.367C465.22 511.817 465.22 496.274 481.765 486.725L623.062 405.147C639.607 395.598 666.525 395.598 683.069 405.147L824.375 486.725C840.92 496.274 840.92 511.817 824.375 521.367L683.074 602.939C666.529 612.498 639.611 612.498 623.066 602.944ZM662.671 416.923C657.372 413.865 648.754 413.865 643.456 416.923L502.159 498.496C496.861 501.554 496.861 506.533 502.159 509.591L643.46 591.168C648.759 594.226 657.377 594.226 662.675 591.168L803.976 509.591C809.275 506.533 809.275 501.559 803.976 498.501L662.671 416.923Z" fill="url(#paint16_linear_14_725)"/>
<path d="M803.976 498.501L662.67 416.923C657.372 413.865 648.754 413.865 643.456 416.923L502.159 498.496C498.625 500.535 497.464 503.429 498.644 506.039C499.233 504.736 500.394 503.506 502.159 502.487L643.456 420.914C648.754 417.856 657.372 417.856 662.67 420.914L803.976 502.491C805.741 503.511 806.902 504.741 807.492 506.043C808.671 503.433 807.51 500.544 803.976 498.501Z" fill="white"/>
<path d="M824.37 521.371L683.069 602.944C666.525 612.494 639.607 612.494 623.062 602.944L481.761 521.367C474.364 517.097 470.286 511.63 469.499 506.039C468.53 512.96 472.608 520.073 481.761 525.358L623.062 606.935C639.607 616.485 666.525 616.485 683.069 606.935L824.37 525.358C833.518 520.078 837.601 512.96 836.627 506.043C835.845 511.634 831.767 517.102 824.37 521.371Z" fill="white"/>
<path d="M627.058 600.64L485.756 519.063C471.411 510.779 471.411 497.307 485.756 489.024L627.058 407.451C641.399 399.172 664.742 399.172 679.083 407.451L820.389 489.028C834.73 497.307 834.73 510.784 820.389 519.063L679.088 600.635C664.737 608.923 641.399 608.923 627.058 600.64ZM666.662 414.619C659.164 410.29 646.963 410.29 639.465 414.619L498.164 496.196C490.666 500.526 490.666 507.57 498.164 511.899L639.47 593.477C646.967 597.806 659.169 597.806 666.666 593.477L807.967 511.899C815.465 507.57 815.465 500.53 807.967 496.196L666.662 414.619Z" fill="url(#paint17_linear_14_725)"/>
<path opacity="0.4" d="M662.671 416.923C657.372 413.865 648.755 413.865 643.456 416.923L502.159 498.496C496.861 501.554 496.861 506.533 502.159 509.591L643.461 591.168C648.759 594.226 657.377 594.226 662.675 591.168L803.976 509.591C809.275 506.533 809.275 501.559 803.976 498.501L662.671 416.923Z" fill="#FFB703"/>
<path opacity="0.5" d="M807.931 503.941V0H498.187L498.205 503.936C498.155 505.979 499.462 508.037 502.159 509.591L643.46 591.168C648.759 594.226 657.377 594.226 662.675 591.168L803.976 509.591C806.673 508.037 807.981 505.984 807.931 503.941Z" fill="url(#paint18_linear_14_725)"/>
<g opacity="0.2">
<mask id="mask0_14_725" style="mask-type:luminance" maskUnits="userSpaceOnUse" x="90" y="636" width="369" height="213">
<path d="M244.473 841.015L103.172 759.438C86.627 749.888 86.627 734.345 103.172 724.791L244.473 643.218C261.018 633.669 287.936 633.669 304.481 643.218L445.786 724.795C462.331 734.345 462.331 749.888 445.786 759.438L304.485 841.01C287.936 850.565 261.018 850.565 244.473 841.015Z" fill="white"/>
</mask>
<g mask="url(#mask0_14_725)">
<path d="M171.039 746.912V915.726L171.048 915.73C171.093 919.387 173.32 922.88 177.846 925.49L318.123 1006.47C328.217 1012.3 345.855 1011.57 357.512 1004.84C364.05 1001.07 367.318 996.206 367.145 991.639V822.784L171.039 746.912Z" fill="url(#paint19_linear_14_725)"/>
</g>
<mask id="mask1_14_725" style="mask-type:luminance" maskUnits="userSpaceOnUse" x="90" y="636" width="369" height="213">
<path d="M244.473 841.015L103.172 759.438C86.627 749.888 86.627 734.345 103.172 724.791L244.473 643.218C261.018 633.669 287.936 633.669 304.481 643.218L445.786 724.795C462.331 734.345 462.331 749.888 445.786 759.438L304.485 841.01C287.936 850.565 261.018 850.565 244.473 841.015Z" fill="white"/>
</mask>
<g mask="url(#mask1_14_725)">
<path opacity="0.3" d="M328.642 1009.85C338.082 1011.29 349.274 1009.6 357.512 1004.84C364.049 1001.06 367.318 996.201 367.144 991.634V822.779L329.328 808.151H328.637V1009.85H328.642Z" fill="#023047"/>
</g>
<mask id="mask2_14_725" style="mask-type:luminance" maskUnits="userSpaceOnUse" x="90" y="636" width="369" height="213">
<path d="M244.473 841.015L103.172 759.438C86.627 749.888 86.627 734.345 103.172 724.791L244.473 643.218C261.018 633.669 287.936 633.669 304.481 643.218L445.786 724.795C462.331 734.345 462.331 749.888 445.786 759.438L304.485 841.01C287.936 850.565 261.018 850.565 244.473 841.015Z" fill="white"/>
</mask>
<g mask="url(#mask2_14_725)">
<path d="M318.123 837.659L177.845 756.677C167.747 750.848 169.013 740.667 180.675 733.934C192.333 727.205 209.971 726.473 220.065 732.302L360.342 813.285C370.441 819.113 369.174 829.294 357.512 836.027C345.854 842.757 328.217 843.488 318.123 837.659Z" fill="url(#paint20_linear_14_725)"/>
</g>
</g>
<path opacity="0.5" d="M318.123 794.203L177.845 713.221C167.747 707.392 169.013 697.211 180.675 690.478C192.333 683.749 209.971 683.017 220.065 688.846L360.342 769.829C370.441 775.657 369.174 785.838 357.512 792.571C345.854 799.301 328.217 800.032 318.123 794.203Z" fill="#023047"/>
<path d="M171.039 491.013V659.826L171.048 659.831C171.093 663.488 173.32 666.981 177.846 669.591L318.123 750.574C328.217 756.402 345.855 755.671 357.512 748.942C364.05 745.166 367.318 740.306 367.145 735.739V566.885L171.039 491.013Z" fill="url(#paint21_linear_14_725)"/>
<path opacity="0.3" d="M328.642 753.957C338.082 755.392 349.274 753.701 357.512 748.942C364.049 745.166 367.318 740.306 367.144 735.739V566.885L329.328 552.256H328.637V753.957H328.642Z" fill="#023047"/>
<path d="M318.123 581.76L177.845 500.777C167.747 494.949 169.013 484.768 180.675 478.034C192.333 471.305 209.971 470.574 220.065 476.402L360.342 557.385C370.441 563.214 369.174 573.394 357.512 580.128C345.854 586.857 328.217 587.589 318.123 581.76Z" fill="url(#paint22_linear_14_725)"/>
<path d="M332.121 570.903C325.428 570.903 319.997 565.477 319.997 558.779V483.776C319.997 458.194 301.28 425.778 279.122 412.987L246.932 394.405C238.429 389.495 230.749 388.297 225.866 391.118C220.984 393.938 218.181 401.184 218.181 411.003V486.007C218.181 492.704 212.755 498.13 206.057 498.13C199.36 498.13 193.933 492.704 193.933 486.007V410.999C193.933 392.009 200.969 377.495 213.742 370.121C226.515 362.747 242.608 363.913 259.052 373.408L291.241 391.991C320.957 409.147 344.236 449.463 344.236 483.776V558.779C344.245 565.477 338.818 570.903 332.121 570.903Z" fill="url(#paint23_linear_14_725)"/>
<path d="M174.995 902.479L0 1003.45L1.23614 1005.59L176.231 904.621L174.995 902.479Z" fill="#FFB703"/>
<defs>
<linearGradient id="paint0_linear_14_725" x1="888.725" y1="893.065" x2="1180.24" y2="1061.38" gradientUnits="userSpaceOnUse">
<stop stop-color="#8ECAE6"/>
<stop offset="1" stop-color="#219EBC"/>
</linearGradient>
<linearGradient id="paint1_linear_14_725" x1="852.171" y1="956.682" x2="1219.6" y2="956.682" gradientUnits="userSpaceOnUse">
<stop stop-color="#8ECAE6"/>
<stop offset="1" stop-color="#219EBC"/>
</linearGradient>
<linearGradient id="paint2_linear_14_725" x1="888.725" y1="678.499" x2="1180.24" y2="846.814" gradientUnits="userSpaceOnUse">
<stop stop-color="#8ECAE6"/>
<stop offset="1" stop-color="#219EBC"/>
</linearGradient>
<linearGradient id="paint3_linear_14_725" x1="852.171" y1="742.117" x2="1219.6" y2="742.117" gradientUnits="userSpaceOnUse">
<stop stop-color="#8ECAE6"/>
<stop offset="1" stop-color="#219EBC"/>
</linearGradient>
<linearGradient id="paint4_linear_14_725" x1="127.315" y1="893.065" x2="418.829" y2="1061.38" gradientUnits="userSpaceOnUse">
<stop stop-color="#8ECAE6"/>
<stop offset="1" stop-color="#219EBC"/>
</linearGradient>
<linearGradient id="paint5_linear_14_725" x1="90.7602" y1="956.682" x2="458.189" y2="956.682" gradientUnits="userSpaceOnUse">
<stop stop-color="#8ECAE6"/>
<stop offset="1" stop-color="#219EBC"/>
</linearGradient>
<linearGradient id="paint6_linear_14_725" x1="127.315" y1="678.499" x2="418.829" y2="846.814" gradientUnits="userSpaceOnUse">
<stop stop-color="#8ECAE6"/>
<stop offset="1" stop-color="#219EBC"/>
</linearGradient>
<linearGradient id="paint7_linear_14_725" x1="90.7602" y1="742.117" x2="458.189" y2="742.117" gradientUnits="userSpaceOnUse">
<stop stop-color="#8ECAE6"/>
<stop offset="1" stop-color="#219EBC"/>
</linearGradient>
<linearGradient id="paint8_linear_14_725" x1="505.906" y1="1143.5" x2="797.421" y2="1311.82" gradientUnits="userSpaceOnUse">
<stop stop-color="#8ECAE6"/>
<stop offset="1" stop-color="#219EBC"/>
</linearGradient>
<linearGradient id="paint9_linear_14_725" x1="469.352" y1="1207.12" x2="836.78" y2="1207.12" gradientUnits="userSpaceOnUse">
<stop stop-color="#8ECAE6"/>
<stop offset="1" stop-color="#219EBC"/>
</linearGradient>
<linearGradient id="paint10_linear_14_725" x1="505.906" y1="913.364" x2="797.421" y2="1081.68" gradientUnits="userSpaceOnUse">
<stop stop-color="#8ECAE6"/>
<stop offset="1" stop-color="#219EBC"/>
</linearGradient>
<linearGradient id="paint11_linear_14_725" x1="469.352" y1="976.981" x2="836.78" y2="976.981" gradientUnits="userSpaceOnUse">
<stop stop-color="#8ECAE6"/>
<stop offset="1" stop-color="#219EBC"/>
</linearGradient>
<linearGradient id="paint12_linear_14_725" x1="505.906" y1="649.629" x2="797.421" y2="817.944" gradientUnits="userSpaceOnUse">
<stop stop-color="#8ECAE6"/>
<stop offset="1" stop-color="#219EBC"/>
</linearGradient>
<linearGradient id="paint13_linear_14_725" x1="469.352" y1="713.247" x2="836.78" y2="713.247" gradientUnits="userSpaceOnUse">
<stop stop-color="#8ECAE6"/>
<stop offset="1" stop-color="#219EBC"/>
</linearGradient>
<linearGradient id="paint14_linear_14_725" x1="505.907" y1="440.43" x2="797.421" y2="608.745" gradientUnits="userSpaceOnUse">
<stop stop-color="#8ECAE6"/>
<stop offset="1" stop-color="#219EBC"/>
</linearGradient>
<linearGradient id="paint15_linear_14_725" x1="523.402" y1="429.096" x2="783.375" y2="579.199" gradientUnits="userSpaceOnUse">
<stop offset="0.2421" stop-color="#023047"/>
<stop offset="1" stop-color="#FFB703"/>
</linearGradient>
<linearGradient id="paint16_linear_14_725" x1="469.352" y1="504.047" x2="836.78" y2="504.047" gradientUnits="userSpaceOnUse">
<stop stop-color="#E9E9FD"/>
<stop offset="1" stop-color="#219EBC"/>
</linearGradient>
<linearGradient id="paint17_linear_14_725" x1="474.994" y1="504.047" x2="831.139" y2="504.047" gradientUnits="userSpaceOnUse">
<stop stop-color="#8ECAE6"/>
<stop offset="1" stop-color="#219EBC"/>
</linearGradient>
<linearGradient id="paint18_linear_14_725" x1="653.058" y1="593.463" x2="653.058" y2="0" gradientUnits="userSpaceOnUse">
<stop stop-color="#FFB703"/>
<stop offset="0.2" stop-color="#817425"/>
<stop offset="0.435" stop-color="#415236"/>
<stop offset="0.64" stop-color="#22413F"/>
<stop offset="0.895" stop-color="#023047"/>
</linearGradient>
<linearGradient id="paint19_linear_14_725" x1="195.61" y1="878.659" x2="391.726" y2="878.659" gradientUnits="userSpaceOnUse">
<stop stop-color="#8ECAE6"/>
<stop offset="0.873" stop-color="#219EBC"/>
</linearGradient>
<linearGradient id="paint20_linear_14_725" x1="-11.0759" y1="784.98" x2="472.881" y2="784.98" gradientUnits="userSpaceOnUse">
<stop stop-color="#8ECAE6"/>
<stop offset="1" stop-color="#219EBC"/>
</linearGradient>
<linearGradient id="paint21_linear_14_725" x1="195.61" y1="622.76" x2="391.726" y2="622.76" gradientUnits="userSpaceOnUse">
<stop stop-color="#8ECAE6"/>
<stop offset="0.873" stop-color="#219EBC"/>
</linearGradient>
<linearGradient id="paint22_linear_14_725" x1="-11.0759" y1="529.081" x2="472.881" y2="529.081" gradientUnits="userSpaceOnUse">
<stop stop-color="#8ECAE6"/>
<stop offset="1" stop-color="#219EBC"/>
</linearGradient>
<linearGradient id="paint23_linear_14_725" x1="122.654" y1="440.519" x2="473.148" y2="500.715" gradientUnits="userSpaceOnUse">
<stop stop-color="#8ECAE6"/>
<stop offset="0.873" stop-color="#219EBC"/>
</linearGradient>
</defs>
</svg>
