<svg width="894" height="97" viewBox="0 0 894 97" fill="none" xmlns="http://www.w3.org/2000/svg">
<path d="M90.375 97H74.125V75H17V97H0.75V52.1875C0.75 45.6458 1.875 39.625 4.125 34.125C6.375 28.625 9.5 23.8958 13.5 19.9375C17.5 15.9792 22.2292 12.8958 27.6875 10.6875C33.1458 8.47917 39.1042 7.375 45.5625 7.375H82.1875C83.3125 7.375 84.375 7.58333 85.375 8C86.375 8.41667 87.25 9 88 9.75C88.75 10.5 89.3333 11.375 89.75 12.375C90.1667 13.375 90.375 14.4375 90.375 15.5625V97ZM17 58.75H74.125V23.625H45.5625C45.0625 23.625 44 23.7083 42.375 23.875C40.7917 24 38.9375 24.3542 36.8125 24.9375C34.7292 25.5208 32.5208 26.4167 30.1875 27.625C27.8542 28.8333 25.7083 30.5 23.75 32.625C21.7917 34.75 20.1667 37.4167 18.875 40.625C17.625 43.7917 17 47.6458 17 52.1875V58.75ZM137.188 97H129.938C127.604 97 125.104 96.6042 122.438 95.8125C119.812 95.0208 117.354 93.7292 115.062 91.9375C112.771 90.1042 110.875 87.75 109.375 84.875C107.875 81.9583 107.125 78.3958 107.125 74.1875V0.875H123.375V74.1875C123.375 76.1875 124 77.7917 125.25 79C126.5 80.1667 128.062 80.75 129.938 80.75H137.188V97ZM164.125 15.5625H147.875V0.875H164.125V15.5625ZM164.125 97H147.875V29.4375H164.125V97ZM252.438 51.8125C252.438 54.0625 252.042 56.5 251.25 59.125C250.458 61.7083 249.167 64.125 247.375 66.375C245.625 68.5833 243.312 70.4375 240.438 71.9375C237.604 73.4375 234.146 74.1875 230.062 74.1875H200.75V58.75H230.062C232.271 58.75 233.979 58.0833 235.188 56.75C236.396 55.375 237 53.6875 237 51.6875C237 49.5625 236.312 47.8958 234.938 46.6875C233.604 45.4792 231.979 44.875 230.062 44.875H200.75C198.542 44.875 196.833 45.5625 195.625 46.9375C194.417 48.2708 193.812 49.9375 193.812 51.9375V74.625C193.812 76.7917 194.479 78.4792 195.812 79.6875C197.188 80.8958 198.875 81.5 200.875 81.5H230.062V97H200.75C198.5 97 196.062 96.6042 193.438 95.8125C190.854 95.0208 188.438 93.75 186.188 92C183.979 90.2083 182.125 87.8958 180.625 85.0625C179.125 82.1875 178.375 78.7083 178.375 74.625V51.8125C178.375 49.5625 178.771 47.1458 179.562 44.5625C180.354 41.9375 181.625 39.5208 183.375 37.3125C185.167 35.0625 187.479 33.1875 190.312 31.6875C193.188 30.1875 196.667 29.4375 200.75 29.4375H230.062C232.312 29.4375 234.729 29.8333 237.312 30.625C239.938 31.4167 242.354 32.7083 244.562 34.5C246.812 36.25 248.688 38.5625 250.188 41.4375C251.688 44.2708 252.438 47.7292 252.438 51.8125ZM338.25 97H322V59.5C322 57.375 321.625 55.4792 320.875 53.8125C320.167 52.1042 319.188 50.6458 317.938 49.4375C316.688 48.2292 315.208 47.3125 313.5 46.6875C311.833 46.0208 310.021 45.6875 308.062 45.6875H279.625V97H263.375V37.5C263.375 36.375 263.583 35.3333 264 34.375C264.417 33.375 265 32.5208 265.75 31.8125C266.5 31.0625 267.375 30.4792 268.375 30.0625C269.375 29.6458 270.438 29.4375 271.562 29.4375H308.188C310.229 29.4375 312.375 29.6667 314.625 30.125C316.917 30.5833 319.167 31.3333 321.375 32.375C323.625 33.375 325.75 34.6667 327.75 36.25C329.792 37.7917 331.583 39.6875 333.125 41.9375C334.708 44.1458 335.958 46.7083 336.875 49.625C337.792 52.5417 338.25 55.8333 338.25 59.5V97ZM484.375 88.8125C484.375 89.9792 484.167 91.0625 483.75 92.0625C483.333 93.0625 482.75 93.9375 482 94.6875C481.292 95.3958 480.438 95.9583 479.438 96.375C478.438 96.7917 477.354 97 476.188 97H417.562C416.062 97 414.438 96.8333 412.688 96.5C410.979 96.125 409.271 95.5625 407.562 94.8125C405.896 94.0625 404.292 93.1042 402.75 91.9375C401.208 90.7292 399.833 89.2917 398.625 87.625C397.458 85.9167 396.521 83.9583 395.812 81.75C395.104 79.5 394.75 76.9792 394.75 74.1875V30.1875C394.75 28.6875 394.917 27.0833 395.25 25.375C395.625 23.625 396.188 21.9167 396.938 20.25C397.688 18.5417 398.667 16.9167 399.875 15.375C401.083 13.8333 402.521 12.4792 404.188 11.3125C405.896 10.1042 407.854 9.14583 410.062 8.4375C412.271 7.72917 414.771 7.375 417.562 7.375H483.625V23.625H417.562C415.438 23.625 413.812 24.1875 412.688 25.3125C411.562 26.4375 411 28.1042 411 30.3125V74.1875C411 76.2708 411.562 77.8958 412.688 79.0625C413.854 80.1875 415.479 80.75 417.562 80.75H468.125V60.375H424.875V44H476.188C477.354 44 478.438 44.2292 479.438 44.6875C480.438 45.1042 481.292 45.6875 482 46.4375C482.75 47.1875 483.333 48.0625 483.75 49.0625C484.167 50.0208 484.375 51.0625 484.375 52.1875V88.8125ZM516 15.5625H499.75V0.875H516V15.5625ZM516 97H499.75V29.4375H516V97ZM590.75 45.6875H554.188C551.979 45.6875 550.312 46.25 549.188 47.375C548.062 48.4583 547.5 50.0625 547.5 52.1875V97H531.25V52.1875C531.25 49.3958 531.604 46.8958 532.312 44.6875C533.021 42.4792 533.958 40.5417 535.125 38.875C536.333 37.1667 537.708 35.7292 539.25 34.5625C540.792 33.3542 542.396 32.375 544.062 31.625C545.771 30.875 547.479 30.3333 549.188 30C550.938 29.625 552.562 29.4375 554.062 29.4375H590.75V45.6875ZM666 74.625C666 76.875 665.604 79.3125 664.812 81.9375C664.021 84.5208 662.729 86.9375 660.938 89.1875C659.188 91.3958 656.875 93.25 654 94.75C651.167 96.25 647.708 97 643.625 97H614.312C612.062 97 609.625 96.6042 607 95.8125C604.417 95.0208 602 93.75 599.75 92C597.542 90.2083 595.688 87.8958 594.188 85.0625C592.688 82.1875 591.938 78.7083 591.938 74.625C591.938 72.375 592.333 69.9375 593.125 67.3125C593.917 64.6875 595.188 62.2708 596.938 60.0625C598.729 57.8125 601.042 55.9375 603.875 54.4375C606.75 52.9375 610.229 52.1875 614.312 52.1875H643.625V67.6875H614.312C612.104 67.6875 610.396 68.375 609.188 69.75C607.979 71.0833 607.375 72.75 607.375 74.75C607.375 76.875 608.062 78.5417 609.438 79.75C610.854 80.9167 612.521 81.5 614.438 81.5H643.625C645.833 81.5 647.542 80.8333 648.75 79.5C649.958 78.1667 650.562 76.5 650.562 74.5V51.8125C650.562 49.6875 649.896 48 648.562 46.75C647.271 45.5 645.625 44.875 643.625 44.875H607.938V29.4375H643.625C645.875 29.4375 648.292 29.8333 650.875 30.625C653.5 31.4167 655.917 32.7083 658.125 34.5C660.375 36.25 662.25 38.5625 663.75 41.4375C665.25 44.2708 666 47.7292 666 51.8125V74.625ZM739.688 45.6875H702.938V29.4375H739.688V45.6875ZM739.688 16.375H703.062C700.854 16.375 699.188 16.9375 698.062 18.0625C696.938 19.1458 696.375 20.75 696.375 22.875V97H680.125V22.875C680.125 20.0833 680.479 17.5833 681.188 15.375C681.896 13.1667 682.833 11.2292 684 9.5625C685.208 7.85417 686.583 6.41667 688.125 5.25C689.667 4.04167 691.271 3.0625 692.938 2.3125C694.646 1.5625 696.354 1.02083 698.062 0.6875C699.771 0.3125 701.396 0.125 702.938 0.125H739.688V16.375ZM810.188 45.6875H773.438V29.4375H810.188V45.6875ZM810.188 16.375H773.562C771.354 16.375 769.688 16.9375 768.562 18.0625C767.438 19.1458 766.875 20.75 766.875 22.875V97H750.625V22.875C750.625 20.0833 750.979 17.5833 751.688 15.375C752.396 13.1667 753.333 11.2292 754.5 9.5625C755.708 7.85417 757.083 6.41667 758.625 5.25C760.167 4.04167 761.771 3.0625 763.438 2.3125C765.146 1.5625 766.854 1.02083 768.562 0.6875C770.271 0.3125 771.896 0.125 773.438 0.125H810.188V16.375ZM893.312 51.8125C893.312 54.0625 892.917 56.5 892.125 59.125C891.333 61.7083 890.042 64.125 888.25 66.375C886.5 68.5833 884.188 70.4375 881.312 71.9375C878.479 73.4375 875.021 74.1875 870.938 74.1875H841.625V58.75H870.938C873.146 58.75 874.854 58.0833 876.062 56.75C877.271 55.375 877.875 53.6875 877.875 51.6875C877.875 49.5625 877.188 47.8958 875.812 46.6875C874.479 45.4792 872.854 44.875 870.938 44.875H841.625C839.417 44.875 837.708 45.5625 836.5 46.9375C835.292 48.2708 834.688 49.9375 834.688 51.9375V74.625C834.688 76.7917 835.354 78.4792 836.688 79.6875C838.062 80.8958 839.75 81.5 841.75 81.5H870.938V97H841.625C839.375 97 836.938 96.6042 834.312 95.8125C831.729 95.0208 829.312 93.75 827.062 92C824.854 90.2083 823 87.8958 821.5 85.0625C820 82.1875 819.25 78.7083 819.25 74.625V51.8125C819.25 49.5625 819.646 47.1458 820.438 44.5625C821.229 41.9375 822.5 39.5208 824.25 37.3125C826.042 35.0625 828.354 33.1875 831.188 31.6875C834.062 30.1875 837.542 29.4375 841.625 29.4375H870.938C873.188 29.4375 875.604 29.8333 878.188 30.625C880.812 31.4167 883.229 32.7083 885.438 34.5C887.688 36.25 889.562 38.5625 891.062 41.4375C892.562 44.2708 893.312 47.7292 893.312 51.8125Z" fill="#8ECAE6"/>
</svg>
