<svg width="1482" height="338" viewBox="0 0 1482 338" fill="none" xmlns="http://www.w3.org/2000/svg">
<path d="M14.0287 42.2056C14.0287 42.2056 14.1693 44.6009 11.9172 45.7289C9.66516 46.8569 5.44361 48.2649 4.88091 46.8569L1.50341 47.9848C1.50341 47.9848 -1.59273 44.3209 1.22206 40.5162L3.33348 38.6849C3.33348 38.6849 3.05212 37.5569 4.3182 36.5709C5.58428 35.5849 9.24313 33.0476 11.4952 30.229C13.7473 27.4104 16.2795 26.1417 19.0943 23.0418C21.9091 19.9418 23.3158 15.5732 25.9899 12.0499C28.664 8.52659 31.0555 12.1905 31.0555 12.1905L33.1004 11.2378C33.1004 11.2378 30.1961 6.82057 31.4865 5.20408C32.7782 3.58758 36.758 8.0048 36.758 8.0048C36.758 8.0048 39.2326 1.86368 40.6317 0.463315C42.0308 -0.937048 43.6447 1.43269 43.5373 2.94176C43.4299 4.45083 41.6011 9.29902 41.6011 9.29902C41.6011 9.29902 43.1076 11.5613 44.9364 11.67C46.7652 11.7775 47.842 10.7007 50.1005 12.2085C52.3602 13.7175 57.7391 21.0429 57.7391 21.0429L45.9032 36.0185C45.9032 36.0185 43.3212 34.6181 40.6304 35.5875C37.9435 36.5569 38.4781 38.9125 14.0287 42.2056Z" fill="#FFB703"/>
<path d="M41.8174 30.2021C41.8174 30.2021 46.2269 33.2586 50.6365 42.0905C55.046 50.9223 73.7022 89.9841 84.5572 101.874C95.4123 113.763 124.583 142.635 124.583 142.635L143.919 100.516C143.919 100.516 106.606 87.9482 86.5932 59.4153C66.5801 30.8825 55.7251 18.6539 52.6724 16.9556C49.6185 15.2572 41.8174 30.2021 41.8174 30.2021Z" fill="#FFB703"/>
<path d="M62.815 34.1232C63.1679 34.599 63.9327 34.7614 64.2818 35.2294C64.6361 35.7039 64.3829 36.6298 64.7345 37.0966C65.0901 37.5698 65.8561 37.7271 66.2091 38.1926C66.5672 38.6645 66.5071 39.4497 66.8613 39.9139C67.2207 40.3846 67.7348 40.7324 68.0903 41.1954C68.4509 41.6647 68.7898 42.1469 69.1479 42.6085C69.5111 43.0766 70.2401 43.2531 70.5994 43.7122C70.9639 44.179 70.9665 44.9258 71.3271 45.3837C71.6942 45.8492 71.9295 46.4132 72.2927 46.8697C72.6623 47.334 73.2224 47.6383 73.5882 48.0936C73.959 48.5553 74.1739 49.1397 74.5409 49.5924C74.9143 50.0528 75.6855 50.182 76.0538 50.6334C76.4285 51.0925 76.9222 51.4455 77.2943 51.8944C77.6716 52.351 78.0604 52.7896 78.4338 53.2372C78.8136 53.6925 78.5911 54.6491 78.9658 55.0941C79.3482 55.5469 79.7485 55.9804 80.127 56.4229C80.512 56.873 81.4775 56.8181 81.8573 57.258C82.2448 57.7069 82.2397 58.4882 82.6234 58.9269C83.0134 59.3732 83.6362 59.6072 84.0225 60.0421C84.4164 60.4858 84.3358 61.3465 84.7246 61.7801C85.121 62.2213 86.1288 62.1011 86.5201 62.532C86.9204 62.9707 87.3603 63.3607 87.7542 63.7879C88.157 64.224 87.9997 65.1742 88.3975 65.5988C88.8042 66.0323 89.1865 66.4825 89.5881 66.9045C89.9973 67.3355 90.3209 67.8445 90.725 68.2627C91.1381 68.6898 91.8312 68.8369 92.2392 69.2512C92.6561 69.6745 93.3979 69.764 93.8096 70.1746C94.2304 70.5953 94.4222 71.2347 94.8366 71.6414C95.2612 72.0583 95.8584 72.2834 96.2766 72.6863C96.7063 73.0981 96.8623 73.7848 97.2856 74.1825C97.7191 74.5905 97.9148 75.2465 98.342 75.6392C98.7793 76.042 99.3177 76.3285 99.7487 76.716C100.191 77.1137 100.687 77.4424 101.123 77.8247C101.57 78.2174 102.367 78.1918 102.806 78.569C103.258 78.9565 103.592 79.4643 104.037 79.8351C104.493 80.2162 104.561 81.0628 105.01 81.4273C105.473 81.802 105.946 82.1601 106.401 82.5182C106.869 82.8865 107.541 82.9837 108.001 83.3341C108.476 83.6961 109.21 83.6909 109.677 84.0349C110.156 84.3892 110.186 85.3509 110.657 85.6872C111.143 86.0325 111.779 86.1566 112.256 86.484C112.747 86.8216 113.43 86.8561 113.913 87.1746C114.411 87.5032 114.882 87.8473 115.37 88.1567C115.873 88.4752 116.293 88.9062 116.787 89.2054C117.296 89.5136 117.677 90.0239 118.177 90.3142C118.693 90.6122 119.266 90.7951 119.772 91.0751C120.292 91.3629 120.778 91.7018 121.29 91.9716C121.817 92.2491 122.611 91.978 123.129 92.2376C123.661 92.5036 124.104 92.9154 124.628 93.1635C125.164 93.418 125.693 93.6572 126.221 93.895C126.762 94.138 127.129 94.757 127.663 94.9846C128.207 95.2174 128.769 95.4015 129.307 95.6189C129.856 95.8415 130.557 95.656 131.099 95.8658C131.65 96.0793 132.2 96.2635 132.745 96.4656C133.299 96.6702 133.837 96.8901 134.386 97.0845C134.941 97.2815 135.51 97.4183 136.06 97.6076C136.616 97.7994 137.055 98.3199 137.607 98.5066C138.203 98.7074 138.762 98.9632 139.326 99.141C139.928 99.3315 140.648 99.0425 141.215 99.2087C141.822 99.3865 142.267 100.046 142.835 100.197C143.45 100.361 144.012 100.642 144.579 100.775C145.202 100.921 145.875 100.697 146.445 100.811C147.078 100.936 147.569 101.7 148.137 101.788C148.782 101.887 149.503 101.04 150.068 101.095C150.728 101.159 151.291 101.755 151.847 101.768C152.532 101.782 153.175 101.989 153.711 101.938C154.434 101.869 154.883 101.064 155.358 100.906C156.172 100.633 156.744 100.591 156.91 100.2C157.134 99.673 156.765 99.2356 156.05 98.8775C155.684 98.6946 155.36 97.9465 154.689 97.6818C154.216 97.495 153.359 98.137 152.767 97.9222C152.263 97.7393 151.818 97.2879 151.245 97.0909C150.724 96.9119 150.279 96.4349 149.717 96.2481C149.187 96.0729 148.673 95.7942 148.117 95.6151C147.58 95.4425 146.904 95.6727 146.352 95.5013C145.807 95.3325 145.344 94.8836 144.794 94.7186C144.243 94.5536 143.691 94.3899 143.143 94.2326C142.586 94.0715 142.041 93.8758 141.495 93.7262C140.93 93.5702 140.389 93.3592 139.848 93.2185C139.272 93.0689 138.674 93.0855 138.138 92.9576C137.548 92.8169 136.97 92.7696 136.446 92.6609C135.828 92.533 135.21 92.7978 134.709 92.7236C134.164 92.643 133.732 91.7913 133.141 91.6557C132.599 91.5304 132.064 91.3641 131.488 91.1966C130.949 91.0393 130.321 91.1352 129.757 90.9421C129.224 90.7592 128.502 91.0342 127.949 90.8219C127.42 90.6186 127.047 89.974 126.503 89.7451C125.978 89.5239 125.492 89.1952 124.955 88.9522C124.435 88.7169 123.742 88.8282 123.213 88.5737C122.698 88.3243 122.451 87.5211 121.931 87.2551C121.419 86.9943 120.881 86.7884 120.367 86.5121C119.86 86.2397 118.991 86.6144 118.482 86.328C117.979 86.0453 117.799 85.191 117.296 84.8956C116.799 84.6028 116.356 84.2204 115.861 83.916C115.368 83.6129 114.929 83.2318 114.439 82.9198C113.952 82.6077 113.236 82.6103 112.728 82.2522C112.251 81.9146 111.791 81.5258 111.298 81.1524C110.829 80.7968 110.062 80.793 109.585 80.4106C109.123 80.0398 109.229 78.9591 108.762 78.5678C108.307 78.1854 107.459 78.257 107.001 77.8593C106.55 77.468 106.422 76.7032 105.972 76.3004C105.524 75.9001 105.056 75.5266 104.612 75.1187C104.168 74.7107 103.438 74.6135 103.001 74.203C102.56 73.7887 102.188 73.304 101.757 72.8909C101.318 72.4701 101.166 71.7629 100.741 71.3473C100.304 70.9201 99.4661 70.915 99.0453 70.4981C98.6092 70.0659 98.1386 69.6809 97.7243 69.264C97.2869 68.8241 97.324 67.9391 96.916 67.5209C96.4774 67.0733 95.7139 66.9774 95.3136 66.563C94.8711 66.1065 94.5028 65.6231 94.1127 65.2164C93.6587 64.7432 93.0781 64.4631 92.706 64.0718C92.3556 63.7035 91.8325 63.3607 91.39 62.862C91.0294 62.4553 90.6227 62.0141 90.2109 61.532C89.8477 61.1074 89.9053 60.2825 89.5088 59.808C89.1456 59.3719 88.6942 58.9806 88.3067 58.5087C87.9435 58.0649 87.2094 57.9 86.8296 57.4293C86.4664 56.9805 86.4421 56.24 86.0661 55.7694C85.7042 55.3154 85.6837 54.5787 85.3128 54.1094C84.9509 53.6516 84.3396 53.383 83.9726 52.9149C83.6119 52.4533 82.9508 52.2192 82.5876 51.7499C82.2269 51.2844 82.1297 50.613 81.7704 50.1436C81.411 49.6743 81.1322 49.1435 80.7767 48.6742C80.4186 48.2023 80.1897 47.6345 79.8354 47.1651C79.4786 46.6894 78.6243 46.5909 78.2752 46.1203C77.9184 45.6395 77.944 44.8849 77.5987 44.4143C77.2432 43.9296 76.8045 43.5178 76.4631 43.0472C76.1101 42.5586 75.7622 42.0804 75.4272 41.6097C75.0755 41.1135 74.766 40.6096 74.4399 40.1403C74.0895 39.6364 73.491 39.3308 73.1751 38.8627C72.826 38.3461 72.606 37.7808 72.3042 37.3166C72.0036 36.8536 71.9934 36.1336 71.6289 35.6054C71.3079 35.1387 70.6276 34.8803 70.2644 34.3701C69.9293 33.9007 69.905 33.1781 69.5393 32.6807C69.1952 32.2113 68.3295 32.1077 67.9637 31.6179C67.612 31.1486 67.2117 30.7035 66.8434 30.2201C66.4853 29.7508 66.438 29.032 66.0684 28.5537C65.7052 28.0844 65.5083 27.4757 65.1361 27.0025C64.7678 26.5331 64.4941 25.9832 64.1207 25.5139C63.7473 25.0445 63.1973 24.7159 62.8226 24.2516C62.4441 23.7823 62.0604 23.3206 61.6832 22.8615C61.2995 22.3922 60.8046 22.0226 60.426 21.5673C60.0373 21.0992 59.417 20.837 59.0372 20.3882C58.642 19.9201 58.1548 19.5505 57.7749 19.1093C57.3721 18.6399 57.092 18.0939 56.7109 17.6616C56.2953 17.191 56.2416 16.4352 55.8592 16.0157C55.4257 15.54 55.0177 15.0949 54.6366 14.6972C54.1672 14.2074 53.5802 13.9401 53.2081 13.5897C52.5559 12.9758 52.1978 12.229 51.9241 12.1471C51.2885 11.9566 50.5327 11.931 50.2629 12.0883C49.6771 12.431 49.6081 13.1024 49.8025 13.7534C50.0506 14.577 50.0813 14.3941 50.6363 15.3213C50.8882 15.7408 51.3857 16.118 51.7233 16.6769C51.997 17.1296 52.7669 17.3368 53.0853 17.8624C53.3692 18.3292 53.1224 19.1541 53.4345 19.6656C53.7235 20.1388 53.8462 20.7386 54.1545 21.2399C54.4486 21.7195 54.9781 22.0686 55.285 22.5648C55.583 23.0482 56.3784 23.2311 56.6841 23.7222C56.9872 24.2081 57.0038 24.8757 57.3094 25.3617C57.6164 25.8502 57.6279 26.5255 57.9335 27.0076C58.2456 27.4987 58.4208 28.0716 58.7277 28.5474C59.0461 29.041 59.8736 29.1906 60.1818 29.6587C60.5079 30.1562 61.013 30.5079 61.3212 30.967C61.6589 31.4696 61.9799 31.9389 62.2881 32.3814C62.6564 32.8981 62.508 33.7089 62.815 34.1232Z" fill="#FFB703"/>
<path d="M124.211 137.402C124.211 137.402 119.495 149.682 120.752 155.98C122.01 162.277 129.87 178.652 131.128 181.485C132.387 184.319 164.145 189.356 178.924 192.506C193.702 195.655 213.197 184.635 213.197 184.635C213.197 184.635 248.729 161.963 248.729 155.036C248.729 148.109 235.714 129.628 219.622 125.394C212.622 123.552 188.671 117.881 175.779 109.065C162.887 100.248 147.164 95.8401 135.216 99.6179C123.267 103.394 124.211 137.402 124.211 137.402Z" fill="#FFB703"/>
<path d="M129.422 170.921C129.422 170.921 132.68 193.101 134.308 204.191C135.936 215.28 137.565 226.697 137.891 232.894C138.217 239.092 135.285 245.941 138.868 254.421C138.868 254.421 136.262 288.996 133.33 295.845C130.399 302.695 129.422 302.695 125.513 305.63C121.604 308.565 120.627 315.414 120.627 315.414L131.05 315.088C131.05 315.088 133.981 308.239 138.868 305.304C143.753 302.369 141.148 288.996 142.776 282.798C144.405 276.601 146.684 253.117 146.684 253.117C146.684 253.117 151.245 247.572 149.942 237.787C149.942 237.787 149.942 210.062 151.57 201.256C153.198 192.45 160.364 186.905 161.342 184.948C162.32 182.99 129.422 170.921 129.422 170.921Z" fill="#FFB703"/>
<path d="M125.489 307.291C125.489 307.291 118.47 309.134 115.824 314.435C115.824 314.435 120.197 317.43 132.277 315.242L135.153 308.098C135.153 308.098 131.241 305.563 125.489 307.291Z" fill="#FFB703"/>
<path d="M151.47 179.69C151.47 179.69 155.815 198.958 163.573 212.944C171.332 226.928 173.923 244.512 176.453 249.706C179.791 256.556 183.829 257.961 183.829 257.961C183.829 257.961 201.693 284.42 205.135 291.925C208.579 299.431 208.579 305.719 208.579 305.719L215.466 304.096C215.466 304.096 217.086 291.723 214.251 286.855C211.416 281.986 207.769 280.363 207.769 280.363C207.769 280.363 190.348 252.168 190.146 251.356C189.944 250.545 186.355 243.345 184.532 239.694C182.708 236.043 178.397 194.357 178.599 189.082C178.801 183.808 155.194 167.088 151.47 179.69Z" fill="#FFB703"/>
<path d="M204.549 177.484C204.549 177.484 205.942 183.76 217.431 201.192C228.921 218.624 237.277 230.478 238.67 243.727C240.062 256.976 238.322 282.078 236.581 291.143C234.841 300.207 233.618 301.091 233.618 301.091C233.618 301.091 226.135 305.178 224.945 309.606C224.945 309.606 235.489 310.968 241.951 309.776C241.951 309.776 241.271 305.689 242.631 303.985C243.992 302.282 246.033 300.238 246.033 297.854C246.033 295.47 246.884 262.431 248.925 253.916C250.966 245.401 254.026 237.227 254.196 233.31C254.366 229.393 252.155 227.86 251.305 225.305C250.454 222.751 245.983 206.895 248.308 196.312C250.633 185.729 254.227 163.293 247.674 153.134C241.12 142.974 205.602 168.603 204.549 177.484Z" fill="#FFB703"/>
<path d="M207.554 180.197C207.554 180.197 210.109 186.094 224.691 201.03C239.272 215.964 249.721 226.018 253.596 238.762C257.472 251.506 260.514 276.483 260.521 285.714C260.527 294.945 259.495 296.045 259.495 296.045C259.495 296.045 252.922 301.479 252.592 306.052C252.592 306.052 262.002 307.824 268.121 305.426C268.121 305.426 266.008 301.383 267.023 299.452C268.037 297.522 271.524 292.851 271.073 290.51C270.621 288.169 265.201 255.568 265.593 246.82C265.984 238.071 267.442 229.464 266.868 225.585C266.294 221.707 263.832 220.622 262.513 218.275C261.195 215.929 253.803 201.209 254.082 190.377C254.36 179.545 253.642 156.833 245.284 148.101C236.928 139.37 206.905 171.278 207.554 180.197Z" fill="#FFB703"/>
<path d="M228.6 129.457C228.6 129.457 249.093 140.254 255.305 153.848C261.518 167.443 255.305 196.939 267.731 212.607C280.156 228.276 282.864 226.612 280.793 226.382C278.723 226.152 265.316 216.417 259.324 204.769C249.162 185.017 253.887 162.441 248.728 155.034C243.569 147.627 226.547 140.011 228.6 129.457Z" fill="#FFB703"/>
<path d="M269.896 217.021C270.359 216.866 278.544 215.784 284.875 226.608C291.207 237.434 296.303 242.382 300.782 244.547C300.782 244.547 283.177 243.619 277.154 232.485C271.131 221.351 269.896 217.021 269.896 217.021Z" fill="#FFB703"/>
<path d="M208.485 294.174C208.485 294.174 205.907 301.908 206.422 308.267C206.422 308.267 215.876 307.751 218.798 298.813L214.329 291.423L208.485 294.174Z" fill="#FFB703"/>
<path d="M270.786 216.734C270.786 216.734 278.793 216.97 282.678 221.915C286.564 226.86 290.097 233.337 292.334 235.338C292.334 235.338 288.802 234.278 285.622 230.157C285.622 230.157 282.09 236.987 283.503 239.223C284.916 241.46 286.682 242.756 286.682 242.756C286.682 242.756 277.027 238.281 274.79 227.802C272.552 217.324 270.786 216.734 270.786 216.734Z" fill="#FFB703"/>
<path d="M409.424 264.463C416.689 264.463 420.322 263.525 420.322 261.65V261.035C420.322 260.039 418.359 251.748 414.434 236.162C410.508 220.518 407.871 212.695 406.523 212.695H406.172C406.055 212.695 404.941 214.98 402.832 219.551C391.934 242.93 386.484 257.168 386.484 262.266V262.793C386.484 263.672 387.598 264.111 389.824 264.111L391.23 264.287L397.646 264.463H409.424ZM407.402 191.514H409.424C414.404 191.514 418.857 196.055 422.783 205.137C429.463 220.43 437.051 245.127 445.547 279.229C446.66 283.564 448.301 287.9 450.469 292.236C452.695 296.572 453.809 299.326 453.809 300.498C453.809 303.838 452.695 306.768 450.469 309.287C448.242 311.807 445.605 313.066 442.559 313.066H440.625C435.527 313.066 432.334 311.455 431.045 308.232C430.811 307.705 430.547 306.211 430.254 303.75C430.02 301.23 429.668 298.887 429.199 296.719C427.559 289.102 425.508 283.887 423.047 281.074C420.645 278.203 413.818 276.768 402.568 276.768C391.318 276.768 384.346 278.057 381.65 280.635C379.014 283.213 376.26 288.486 373.389 296.455C372.51 298.916 371.807 301.641 371.279 304.629C370.811 307.617 370.312 309.551 369.785 310.43C368.73 312.129 366.562 312.979 363.281 312.979C360.059 312.979 357.48 311.865 355.547 309.639C353.613 307.412 352.646 304.805 352.646 301.816C352.646 298.77 354.17 295.137 357.217 290.918C360.205 286.699 365.801 273.809 374.004 252.246C386.895 218.262 395.566 199.16 400.02 194.941C402.48 192.656 404.941 191.514 407.402 191.514ZM478.594 192.832C478.594 188.555 482.607 186.416 490.635 186.416H492.217C495.557 186.416 497.842 187.236 499.072 188.877C500.303 190.459 500.918 193.564 500.918 198.193L500.215 211.289C500.039 213.34 499.951 214.453 499.951 214.629L499.775 217.969C499.658 220.137 499.541 222.334 499.424 224.561L499.16 227.9L498.896 232.91C497.959 250.723 497.49 263.877 497.49 272.373C497.49 280.811 497.871 286.875 498.633 290.566C499.395 294.258 500.596 297.393 502.236 299.971C503.877 302.549 504.697 304.248 504.697 305.068V306.123C504.697 308.701 503.408 310.752 500.83 312.275C498.311 313.799 494.883 314.561 490.547 314.561H485.977C483.281 314.561 480.908 313.799 478.857 312.275C476.865 310.693 475.869 308.906 475.869 306.914V304.541L476.396 300.85C477.1 295.752 477.51 291.943 477.627 289.424C477.803 286.846 478.066 283.301 478.418 278.789C478.77 274.219 479.326 264.521 480.088 249.697C480.908 234.814 481.318 226.816 481.318 225.703L481.67 219.111L481.846 212.607C481.846 206.396 481.289 201.973 480.176 199.336C479.121 196.641 478.594 194.473 478.594 192.832ZM554.004 200.742V201.797C554.004 204.785 553.125 207.334 551.367 209.443C549.668 211.494 547.031 212.52 543.457 212.52H542.051L539.326 212.168C537.744 212.168 536.221 211.436 534.756 209.971C533.291 208.506 532.559 206.309 532.559 203.379V202.324L532.998 199.16C532.998 197.93 533.73 196.406 535.195 194.59C536.719 192.773 538.652 191.865 540.996 191.865L543.018 191.602H544.775L547.236 191.953C548.76 191.953 550.254 192.715 551.719 194.238C553.242 195.703 554.004 197.871 554.004 200.742ZM549.873 237.832L548.906 261.475L548.73 263.848L548.467 271.055V274.482C548.467 282.92 548.701 288.457 549.17 291.094C549.697 293.73 550.664 296.309 552.07 298.828C553.477 301.289 554.18 303.076 554.18 304.189V304.98C554.18 307.852 552.715 310.137 549.785 311.836C546.855 313.535 542.871 314.385 537.832 314.385H535.635C532.705 314.385 530.479 313.74 528.955 312.451C527.432 311.104 526.67 309.668 526.67 308.145V306.211C526.67 305.449 527.344 302.754 528.691 298.125C530.039 293.438 530.713 287.08 530.713 279.053C530.889 276.768 530.977 275.186 530.977 274.307L531.24 269.473L531.416 267.1C531.709 262.998 531.855 259.805 531.855 257.52L531.943 254.004C531.943 249.609 531.211 245.713 529.746 242.314C528.34 238.916 527.637 236.807 527.637 235.986C527.637 231.768 531.621 229.658 539.59 229.658H542.754C545.742 229.658 547.676 230.449 548.555 232.031C549.434 233.555 549.873 235.488 549.873 237.832ZM591.885 261.562V262.969C591.885 264.727 593.496 265.605 596.719 265.605H598.828L599.355 265.518L603.662 265.166C608.174 264.521 611.104 264.199 612.451 264.199C618.838 264.199 623.643 262.998 626.865 260.596C628.389 259.424 629.15 257.344 629.15 254.355V253.389C629.15 248.994 627.686 245.508 624.756 242.93C621.885 240.352 618.428 239.062 614.385 239.062H613.77L613.242 239.15C607.559 239.15 602.578 241.553 598.301 246.357C594.023 251.162 591.885 256.23 591.885 261.562ZM611.045 316.143H609.111C597.92 316.143 589.014 312.598 582.393 305.508C575.771 298.359 572.461 288.838 572.461 276.943V273.076C572.461 267.393 573.574 261.621 575.801 255.762C580.312 244.043 587.666 235.957 597.861 231.504C603.252 229.102 608.73 227.9 614.297 227.9H618.076C625.752 227.9 632.227 230.479 637.5 235.635C642.832 240.732 645.498 247.324 645.498 255.41V257.168C645.498 262.91 643.213 266.982 638.643 269.385C635.479 271.084 628.096 272.783 616.494 274.482C604.893 276.182 598.564 277.207 597.51 277.559C593.994 278.789 592.236 281.133 592.236 284.59C592.236 289.395 594.287 293.496 598.389 296.895C602.49 300.293 607.998 301.992 614.912 301.992C618.135 301.992 622.529 301.113 628.096 299.355C633.662 297.598 636.885 296.719 637.764 296.719C640.752 296.719 642.246 298.008 642.246 300.586C642.246 304.043 638.877 307.5 632.139 310.957C625.4 314.414 618.369 316.143 611.045 316.143ZM745.254 304.453C745.254 308.789 741.475 310.957 733.916 310.957C729.639 310.957 726.768 309.932 725.303 307.881C724.6 306.885 724.248 304.541 724.248 300.85L723.984 295.225C723.574 289.072 723.369 282.891 723.369 276.68C723.369 263.262 722.197 254.268 719.854 249.697C717.568 245.068 713.701 242.754 708.252 242.754C704.619 242.754 701.25 243.838 698.145 246.006C695.098 248.174 692.754 251.191 691.113 255.059C687.715 262.969 686.016 277.588 686.016 298.916C686.016 303.779 685.078 307.207 683.203 309.199C681.387 311.191 679.043 312.188 676.172 312.188H674.414C667.852 312.188 664.57 309.58 664.57 304.365V302.256C664.57 301.611 664.922 300.205 665.625 298.037L667.031 293.994C668.438 289.248 669.141 279.082 669.141 263.496L669.58 237.393C669.58 234.053 671.396 232.383 675.029 232.383C678.662 232.383 682.236 233.584 685.752 235.986C689.326 238.389 691.582 239.59 692.52 239.59C693.516 239.59 695.244 238.916 697.705 237.568C705.967 233.057 712.588 230.801 717.568 230.801H719.854C728.818 230.801 735.117 234.844 738.75 242.93C740.508 246.738 741.387 254.941 741.387 267.539V268.154C741.387 269.209 741.357 270.264 741.299 271.318C741.299 274.189 741.299 275.684 741.299 275.801C741.299 276.914 741.299 277.998 741.299 279.053C741.299 279.873 741.299 280.664 741.299 281.426C741.299 285.938 741.445 289.014 741.738 290.654C742.148 292.881 742.822 295.195 743.76 297.598C744.756 300.234 745.254 302.52 745.254 304.453ZM814.775 256.553C814.834 247.119 816.27 238.33 819.082 230.186C824.824 213.779 834.902 202.354 849.316 195.908C856.992 192.451 866.045 190.723 876.475 190.723C886.963 190.723 895.049 192.012 900.732 194.59C903.252 195.703 905.391 197.52 907.148 200.039C908.965 202.5 909.873 204.961 909.873 207.422C909.873 209.824 909.229 211.787 907.939 213.311C906.65 214.775 905.625 215.508 904.863 215.508C904.102 215.508 900.205 213.926 893.174 210.762C886.201 207.656 879.99 206.104 874.541 206.104H874.277C863.145 206.104 854.121 209.941 847.207 217.617C843.223 222.012 840.234 227.52 838.242 234.141C836.25 240.82 835.225 247.676 835.166 254.707C835.166 276.621 842.109 290.537 855.996 296.455C860.449 298.389 865.459 299.355 871.025 299.355C876.592 299.355 881.338 297.715 885.264 294.434C889.248 291.094 891.24 286.084 891.24 279.404C891.24 274.834 888.984 270.146 884.473 265.342C883.066 263.818 882.363 262.676 882.363 261.914C882.363 259.57 885.381 258.398 891.416 258.398C897.51 258.398 902.344 259.014 905.918 260.244C909.492 261.475 911.279 263.262 911.279 265.605C911.279 270.82 910.518 278.145 908.994 287.578C907.529 297.012 906.211 302.695 905.039 304.629C903.105 307.852 899.531 310.342 894.316 312.1C885.176 315.205 877.559 316.758 871.465 316.758H868.301C860.742 316.758 853.711 315.41 847.207 312.715C833.73 307.031 824.385 297.158 819.17 283.096C816.24 275.186 814.775 267.51 814.775 260.068V256.553ZM963.75 200.742V201.797C963.75 204.785 962.871 207.334 961.113 209.443C959.414 211.494 956.777 212.52 953.203 212.52H951.797L949.072 212.168C947.49 212.168 945.967 211.436 944.502 209.971C943.037 208.506 942.305 206.309 942.305 203.379V202.324L942.744 199.16C942.744 197.93 943.477 196.406 944.941 194.59C946.465 192.773 948.398 191.865 950.742 191.865L952.764 191.602H954.521L956.982 191.953C958.506 191.953 960 192.715 961.465 194.238C962.988 195.703 963.75 197.871 963.75 200.742ZM959.619 237.832L958.652 261.475L958.477 263.848L958.213 271.055V274.482C958.213 282.92 958.447 288.457 958.916 291.094C959.443 293.73 960.41 296.309 961.816 298.828C963.223 301.289 963.926 303.076 963.926 304.189V304.98C963.926 307.852 962.461 310.137 959.531 311.836C956.602 313.535 952.617 314.385 947.578 314.385H945.381C942.451 314.385 940.225 313.74 938.701 312.451C937.178 311.104 936.416 309.668 936.416 308.145V306.211C936.416 305.449 937.09 302.754 938.438 298.125C939.785 293.438 940.459 287.08 940.459 279.053C940.635 276.768 940.723 275.186 940.723 274.307L940.986 269.473L941.162 267.1C941.455 262.998 941.602 259.805 941.602 257.52L941.689 254.004C941.689 249.609 940.957 245.713 939.492 242.314C938.086 238.916 937.383 236.807 937.383 235.986C937.383 231.768 941.367 229.658 949.336 229.658H952.5C955.488 229.658 957.422 230.449 958.301 232.031C959.18 233.555 959.619 235.488 959.619 237.832ZM991.172 269.297V262.529C991.172 254.385 990.732 248.438 989.854 244.688C988.975 240.879 988.535 238.213 988.535 236.689C988.535 233.115 991.143 231.328 996.357 231.328C1001.57 231.328 1005.35 232.295 1007.7 234.229C1008.34 234.756 1009.16 235.781 1010.16 237.305C1011.21 238.828 1012.15 239.59 1012.97 239.59C1013.14 239.59 1015.69 238.096 1020.62 235.107C1025.54 232.119 1029.76 230.625 1033.27 230.625H1034.59C1037.46 230.625 1039.75 231.328 1041.45 232.734C1043.14 234.082 1043.99 235.752 1043.99 237.744V238.887C1043.99 241.289 1043.14 243.018 1041.45 244.072C1039.8 245.127 1037.17 245.654 1033.54 245.654C1025.27 245.654 1019.24 248.555 1015.43 254.355C1011.68 260.156 1009.8 270.41 1009.8 285.117C1009.8 287.227 1010.16 290.479 1010.86 294.873C1011.62 299.268 1012 302.578 1012 304.805C1012 307.031 1010.8 309.17 1008.4 311.221C1006 313.271 1002.95 314.297 999.258 314.297H996.27C993.047 314.297 990.557 313.535 988.799 312.012C987.1 310.43 986.25 308.525 986.25 306.299C986.25 304.014 986.66 301.699 987.48 299.355C989.707 293.027 990.82 286.055 990.82 278.438C991.055 274.219 991.172 271.172 991.172 269.297ZM1085.21 303.926H1087.5C1092.3 303.926 1096.52 302.314 1100.16 299.092C1103.85 295.811 1105.69 292.031 1105.69 287.754L1105.87 286.611V285.469L1106.04 282.744V277.734C1106.04 274.336 1104.32 272.637 1100.86 272.637H1096.9L1096.29 272.725L1092.86 272.988C1091.22 273.223 1090.05 273.34 1089.35 273.34C1084.6 273.34 1080.21 275.127 1076.16 278.701C1073.35 281.221 1071.94 284.795 1071.94 289.424V291.182C1071.94 295.107 1073.2 298.213 1075.72 300.498C1078.3 302.783 1081.46 303.926 1085.21 303.926ZM1065.62 247.764C1061.69 247.764 1059.73 245.244 1059.73 240.205C1059.73 236.455 1062.89 233.203 1069.22 230.449C1075.61 227.637 1082.23 226.23 1089.08 226.23H1093.48C1099.39 226.23 1104.61 227.344 1109.12 229.57C1113.63 231.738 1117.06 234.697 1119.4 238.447C1121.81 242.197 1123.27 247.09 1123.8 253.125C1123.92 254.531 1123.97 261.357 1123.97 273.604C1123.97 285.85 1124.12 292.91 1124.41 294.785C1124.77 296.602 1125.7 298.828 1127.23 301.465C1128.81 304.102 1129.6 306.27 1129.6 307.969C1129.6 309.668 1128.78 311.133 1127.14 312.363C1125.56 313.535 1123.24 314.121 1120.2 314.121C1117.15 314.121 1113.84 313.389 1110.26 311.924C1106.69 310.4 1104.08 309.639 1102.44 309.639C1102.27 309.639 1099.34 310.693 1093.65 312.803C1087.97 314.854 1083.16 315.879 1079.24 315.879H1077.3C1070.74 315.879 1065.15 313.799 1060.52 309.639C1055.95 305.479 1053.66 299.561 1053.66 291.885C1053.66 284.209 1056.18 278.232 1061.22 273.955C1066.26 269.619 1072.38 266.66 1079.59 265.078C1081.76 264.609 1085.36 263.994 1090.4 263.232C1095.44 262.471 1098.87 261.68 1100.68 260.859C1103.85 259.395 1105.43 256.641 1105.43 252.598C1105.43 248.496 1104.08 245.303 1101.39 243.018C1098.69 240.674 1095.47 239.502 1091.72 239.502C1088.03 239.502 1083.16 240.879 1077.13 243.633C1071.09 246.387 1067.26 247.764 1065.62 247.764ZM1163.96 321.416H1161.94C1159.01 321.416 1156.52 320.566 1154.47 318.867C1152.48 317.168 1151.48 315.146 1151.48 312.803C1151.48 310.459 1152.19 307.471 1153.59 303.838C1155.06 300.146 1156.11 295.664 1156.76 290.391C1157.46 285.059 1157.81 277.266 1157.81 267.012C1157.81 256.758 1157.31 250.225 1156.32 247.412C1156.14 246.943 1155.32 245.391 1153.86 242.754C1152.39 240.059 1151.66 237.773 1151.66 235.898C1151.66 234.023 1152.63 231.621 1154.56 228.691C1156.55 225.762 1157.87 223.594 1158.52 222.188C1166.43 205.488 1170.56 196.934 1170.91 196.523C1177 189.434 1185.23 185.889 1195.61 185.889C1200.41 185.889 1204.1 186.709 1206.68 188.35C1209.26 189.99 1210.55 192.129 1210.55 194.766C1210.55 197.344 1209.02 199.219 1205.98 200.391C1205.16 200.684 1204.07 200.83 1202.72 200.83C1201.73 200.771 1200.59 200.684 1199.3 200.566C1196.25 200.215 1194.02 200.039 1192.62 200.039C1188.81 200.039 1185.7 201.68 1183.3 204.961C1180.96 208.184 1179.79 211.904 1179.79 216.123C1179.79 220.342 1180.63 223.418 1182.33 225.352C1182.86 225.938 1185.35 227.402 1189.8 229.746C1194.32 232.031 1196.57 234.346 1196.57 236.689C1196.57 237.979 1194.05 239.971 1189.01 242.666C1185.44 244.541 1182.8 247.881 1181.1 252.686C1177.41 262.998 1175.57 276.562 1175.57 293.379L1177.24 308.232C1177.24 312.275 1176.04 315.469 1173.63 317.812C1171.29 320.215 1168.07 321.416 1163.96 321.416ZM1229.53 321.416H1227.51C1224.58 321.416 1222.09 320.566 1220.04 318.867C1218.05 317.168 1217.05 315.146 1217.05 312.803C1217.05 310.459 1217.75 307.471 1219.16 303.838C1220.62 300.146 1221.68 295.664 1222.32 290.391C1223.03 285.059 1223.38 277.266 1223.38 267.012C1223.38 256.758 1222.88 250.225 1221.88 247.412C1221.71 246.943 1220.89 245.391 1219.42 242.754C1217.96 240.059 1217.23 237.773 1217.23 235.898C1217.23 234.023 1218.19 231.621 1220.13 228.691C1222.12 225.762 1223.44 223.594 1224.08 222.188C1231.99 205.488 1236.12 196.934 1236.47 196.523C1242.57 189.434 1250.8 185.889 1261.17 185.889C1265.98 185.889 1269.67 186.709 1272.25 188.35C1274.82 189.99 1276.11 192.129 1276.11 194.766C1276.11 197.344 1274.59 199.219 1271.54 200.391C1270.72 200.684 1269.64 200.83 1268.29 200.83C1267.29 200.771 1266.15 200.684 1264.86 200.566C1261.82 200.215 1259.59 200.039 1258.18 200.039C1254.38 200.039 1251.27 201.68 1248.87 204.961C1246.52 208.184 1245.35 211.904 1245.35 216.123C1245.35 220.342 1246.2 223.418 1247.9 225.352C1248.43 225.938 1250.92 227.402 1255.37 229.746C1259.88 232.031 1262.14 234.346 1262.14 236.689C1262.14 237.979 1259.62 239.971 1254.58 242.666C1251.01 244.541 1248.37 247.881 1246.67 252.686C1242.98 262.998 1241.13 276.562 1241.13 293.379L1242.8 308.232C1242.8 312.275 1241.6 315.469 1239.2 317.812C1236.86 320.215 1233.63 321.416 1229.53 321.416ZM1296.24 261.562V262.969C1296.24 264.727 1297.85 265.605 1301.07 265.605H1303.18L1303.71 265.518L1308.02 265.166C1312.53 264.521 1315.46 264.199 1316.81 264.199C1323.19 264.199 1328 262.998 1331.22 260.596C1332.74 259.424 1333.51 257.344 1333.51 254.355V253.389C1333.51 248.994 1332.04 245.508 1329.11 242.93C1326.24 240.352 1322.78 239.062 1318.74 239.062H1318.12L1317.6 239.15C1311.91 239.15 1306.93 241.553 1302.66 246.357C1298.38 251.162 1296.24 256.23 1296.24 261.562ZM1315.4 316.143H1313.47C1302.28 316.143 1293.37 312.598 1286.75 305.508C1280.13 298.359 1276.82 288.838 1276.82 276.943V273.076C1276.82 267.393 1277.93 261.621 1280.16 255.762C1284.67 244.043 1292.02 235.957 1302.22 231.504C1307.61 229.102 1313.09 227.9 1318.65 227.9H1322.43C1330.11 227.9 1336.58 230.479 1341.86 235.635C1347.19 240.732 1349.85 247.324 1349.85 255.41V257.168C1349.85 262.91 1347.57 266.982 1343 269.385C1339.83 271.084 1332.45 272.783 1320.85 274.482C1309.25 276.182 1302.92 277.207 1301.87 277.559C1298.35 278.789 1296.59 281.133 1296.59 284.59C1296.59 289.395 1298.64 293.496 1302.74 296.895C1306.85 300.293 1312.35 301.992 1319.27 301.992C1322.49 301.992 1326.88 301.113 1332.45 299.355C1338.02 297.598 1341.24 296.719 1342.12 296.719C1345.11 296.719 1346.6 298.008 1346.6 300.586C1346.6 304.043 1343.23 307.5 1336.49 310.957C1329.76 314.414 1322.72 316.143 1315.4 316.143Z" fill="#FFB703"/>
</svg>
